# xmcd
#
# Track frame offsets: 
#        150
#        18015
#        29695
#        36032
#        57111
#        71386
#        82855
#        87168
#        113078
#        117520
#        126703
#        139933
#        154378
#        169253
#        184186
#        196531
#        209563
#        228714
#        251656
#        266066
#        279472
#        302485
#        316325
#        330690
#
# Disc length: 4723 seconds
#
# Revision: 0
# Processed by: cddbd v1.5.2PL0 Copyright (c) Steve Scherf et al.
# Submitted via: ExactAudioCopyFreeDBPlugin 1.0
#
DISCID=5a127118
DTITLE=Leadbelly - Complete Recordings Vol 5
DYEAR=2015
DGENRE=Blues
TTITLE0=Fo’ Day Worry Blues – [140-B] {13th February 1935}
TTITLE1=Hesitation Blues – [141-A-1] {13th February 1935}
TTITLE2=Take Me Back – [141-A-2] {13th February 1935}
TTITLE3=Matchbox Blues – [141-B] {13th February 1935}
TTITLE4=Tight Like That – [142-A] {13th February 1935}
TTITLE5=Gwine Dig A Hole To Put The devil In It – [142-B-1] {13th Febr
TTITLE5=uary 1935}
TTITLE6=Old Man sittin’ In The Corner Dyin’ – [142-B-2] {13th February
TTITLE6=1935}
TTITLE7=Blues I Got Make A New Born Baby Cry – [47-B] {1st March 1935}
TTITLE8=Ho Day – [48-A-1] {1st March 1935}
TTITLE9=One Dollar Bill Baby – [48-A-2] {1st March 1935}
TTITLE10=Yellow Jacket - [17179-1] {25th March 1935}
TTITLE11=T.B. Woman Blues - [17180-1] {25th March 1935}
TTITLE12=Pig Meat Papa - [19181-1] {25th March 1935}
TTITLE13=Pig Meat Papa - [17181-2] {25th March 1935}
TTITLE14=Bull Cow - [17182] {25th March 1935}
TTITLE15=My Baby Quit Me [17183-1] {25th March 1935}
TTITLE16=Governor O. K. Allen – [46-A] {March 1935}
TTITLE17=De Kalb Blues – [48-B] {March 1935}
TTITLE18=Aint Goin’ Down To The well No more – [48-B] {March 1935}
TTITLE19=Ha-Ha This-a-Way – [49-A] {March 1935}
TTITLE20=Alabama Bound – [49-B] {March 1935}
TTITLE21=In Dem Long Hot summer Days – [50-A] {March 1935}
TTITLE22=Go Down, Old Hannah – [50-B] {March 1935}
TTITLE23=I’m All Out And Down – [144-A] {March 1935}
EXTD=
EXTT0=
EXTT1=
EXTT2=
EXTT3=
EXTT4=
EXTT5=
EXTT6=
EXTT7=
EXTT8=
EXTT9=
EXTT10=
EXTT11=
EXTT12=
EXTT13=
EXTT14=
EXTT15=
EXTT16=
EXTT17=
EXTT18=
EXTT19=
EXTT20=
EXTT21=
EXTT22=
EXTT23=
PLAYORDER=
